<svg xmlns="http://www.w3.org/2000/svg" width="23.999" height="24" viewBox="0 0 23.999 24">
  <path id="Divisions_Icon" data-name="Divisions Icon" d="M-673,239.1v-24h24v24Zm16.134-3.1v1.838h6.6V216.362h-6.6V218.2h-.689v-1.838h-6.89V218.2h-.689v-1.838h-6.6v21.475h6.6V236h.689v1.838h6.89V236Zm-.689-1.722v-2.3h.689v2.3Zm-7.579,0v-2.3h.689v2.3Zm7.579-4.019v-2.3h.689v2.3Zm-7.579,0v-2.3h.689v2.3Zm7.579-4.019v-2.3h.689v2.3Zm-7.579,0v-2.3h.689v2.3Zm7.579-4.019v-2.3h.689v2.3Zm-7.579,0v-2.3h.689v2.3Z" transform="translate(239.099 673) rotate(90)" fill="#6f6f6f"/>
</svg>
