<svg xmlns="http://www.w3.org/2000/svg" width="24" height="24" viewBox="0 0 24 24">
  <path id="Home_Icon" data-name="Home Icon" d="M39.505,26.961a1.09,1.09,0,0,0-1.5,0L27.078,37.426a1.037,1.037,0,0,0-.037,1.466l.714.751a1.029,1.029,0,0,0,1.457.036l-.12.114c.206-.2.371-.123.371.164v9.669A1.037,1.037,0,0,0,30.5,50.662H47.016a1.032,1.032,0,0,0,1.032-1.036V39.957c0-.284.166-.36.371-.164l-.12-.114a1.031,1.031,0,0,0,1.457-.036l.714-.751a1.041,1.041,0,0,0-.037-1.466l-3.185-3.05a2.781,2.781,0,0,1-.749-1.758V28.4a1.034,1.034,0,0,0-1.032-1.041H43.4a1.034,1.034,0,0,0-1.032,1.037v.79c0,.288-.171.358-.374.163Z" transform="translate(-26.755 -26.662)" fill="#dedede"/>
</svg>
