<svg xmlns="http://www.w3.org/2000/svg" width="60" height="60" viewBox="0 0 60 60">
  <path id="Icon" d="M6.014,40.048l24.7-.033L49.36,8.127c8.9,3.806,14.456,11.686,16.405,21.215l-24.894-.021-18.8,32.167A28.014,28.014,0,0,1,5.9,39.894M46.217,6.62A42.012,42.012,0,0,0,36.027,5.336,30.964,30.964,0,0,0,6.112,29.362l26.654-.012L46.217,6.62ZM25.059,63.084a24.726,24.726,0,0,0,10.968,2.251c15.166-.1,27.8-10.764,29.876-25.128H38.614L25.059,63.084Z" transform="translate(-5.902 -5.336)" fill="#dedede" fill-rule="evenodd"/>
</svg>
