<svg xmlns="http://www.w3.org/2000/svg" width="29" height="24" viewBox="0 0 29 24">
  <path id="News_Icon" data-name="News Icon" d="M-849,380.164v-24h29v24Zm.6-.6H-820.6V360.553H-848.4Zm0-19.611H-820.6v-3.184H-848.4Zm1.935,17.524v-.6h23.937v.6Zm9.49-2.82v-.6h14.448v.6Zm-9.788,0v-6.243h7.723v6.243Zm.6-.6h6.531v-5.038h-6.531Zm9.192-2.218v-.6h14.448v.6Zm0-2.821v-.6h14.448v.6Zm-9.49-2.82v-.6h23.937v.6Zm0-2.82v-.6h23.937v.6Zm21.652-4.714v-.6h2.634v.6Zm-3.95,0v-.6h1.239v.6Z" transform="translate(849 -356.164)" fill="#6f6f6f"/>
</svg>
