<svg xmlns="http://www.w3.org/2000/svg" width="13.897" height="24" viewBox="0 0 13.897 24">
  <path id="Players_Icon" data-name="Players Icon" d="M-321.692-383.01l-2.6-.493.1-.536,2.605.49a.809.809,0,0,0,.95-.64l.534.1a1.355,1.355,0,0,1-1.33,1.1A1.375,1.375,0,0,1-321.692-383.01ZM-334-383.684l.449-.659.494.29-.449.659Zm5.765.015s.013-.508.013-.508a1.2,1.2,0,0,1,.748-.161,1.2,1.2,0,0,1,.748.161s.013.5.013.508c0,.109-.341.2-.762.2S-328.234-383.561-328.234-383.67Zm5.048-1.311-.134-3.673-2.532-1.956-3.54,2.059-2.414,3.747a.919.919,0,0,1-1.268.28.915.915,0,0,1-.28-1.265l1.854-2.916,2.958-5.069-2.257-5.152-.646-.455a.9.9,0,0,1-.19-1.272c.016-.023.035-.041.053-.062l-1.31-2.992a.579.579,0,0,1-.1-.343l1.185-2.8a.208.208,0,0,1,.27-.117l.278.241a.449.449,0,0,1,.069.555l-.994,2.03c-.158.389.171.878.127.906l.972,2.22a.916.916,0,0,1,.729.14l2.464,1.71a2.279,2.279,0,0,0-.061.52,2.269,2.269,0,0,0,2.267,2.266,2.261,2.261,0,0,0,1.776-.86,10.9,10.9,0,0,0,.822.859c.572.521.364,1.984.364,1.984l-.417,2.041,1.609,2.689h0l.171,4.639a.893.893,0,0,1-.875.931h-.036A.912.912,0,0,1-323.186-384.981Zm-5.2-9.86v-2.386l-1.511-1.064Zm1-3.808a1.7,1.7,0,0,1,1.694-1.694A1.7,1.7,0,0,1-324-398.649a1.7,1.7,0,0,1-1.191,1.617,1.692,1.692,0,0,1-.33.067,1.714,1.714,0,0,1-.173.009A1.7,1.7,0,0,1-327.385-398.649Z" transform="translate(334 406.985)" fill="#6f6f6f"/>
</svg>
