<svg xmlns="http://www.w3.org/2000/svg" width="20" height="20.003" viewBox="0 0 20 20.003">
  <path id="Search" d="M-1509.422,197.173a7.519,7.519,0,0,1-5.031,1.921,7.547,7.547,0,0,1-7.547-7.547,7.547,7.547,0,0,1,7.547-7.547,7.547,7.547,0,0,1,7.547,7.547,7.519,7.519,0,0,1-1.924,5.034l6.829,6.829-.593.593Zm-11.739-5.626a6.709,6.709,0,0,0,6.709,6.709,6.709,6.709,0,0,0,6.709-6.709,6.709,6.709,0,0,0-6.709-6.708A6.709,6.709,0,0,0-1521.161,191.547Z" transform="translate(1522 -184)" fill="#6f6f6f"/>
</svg>
