<svg xmlns="http://www.w3.org/2000/svg" width="24" height="24" viewBox="0 0 24 24">
  <path id="Seasons_Icon" data-name="Seasons Icon" d="M-301.307-345l1.286-2.571h.592a.428.428,0,0,1,.429.429v.857A1.285,1.285,0,0,1-300.286-345Zm-4.286,0,1.286-2.571h3.327L-302.265-345Zm-1.979,0a1.628,1.628,0,0,1-1.314-1.01L-315.371-363h2.5l5.757,15.152a.429.429,0,0,0,.4.277h1.449L-306.551-345Zm-7.878,0-1.286-2.571h1.449a.429.429,0,0,0,.4-.277l2.184-5.75,1.243,3.25-1.656,4.339A1.629,1.629,0,0,1-314.429-345Zm-4.286,0-1.286-2.571h3.328l1.286,2.571Zm-1.979,0A1.285,1.285,0,0,1-323-346.286v-.857a.429.429,0,0,1,.429-.429h.592l1.286,2.571Zm11.173-14.28,1.414-3.72h2.5l-2.67,6.994Zm3.565-4.577.67-2.007-.814-.271-.759,2.278h-.921l1.955-5.143h2.511l-1.964,5.143Zm.284-3.135.814.271.429-1.286-.814-.271Zm-9.008,3.135L-317.663-369h.783l.759,2.278.813-.271-.669-2.007h.824l1.954,5.143Z" transform="translate(323 369)" fill="#6f6f6f"/>
</svg>
