<svg xmlns="http://www.w3.org/2000/svg" width="27.413" height="24" viewBox="0 0 27.413 24">
  <path id="Teams_Icon" data-name="Teams Icon" d="M32.311,22.727l-.349-.967-.451-.879-.582-.893-.841-.852-.955-.632-.983-.423-1.257.307H25.146l-.519-1.061-.581-.892-.841-.852-.955-.632-.983-.408-1.257.322H18.263l-.519-1.084-.581-.9-.841-.853-.955-.633-.983-.419-1.257.312H11.365l-1.257-.312-.983.418-.955.633-.841.852-.582.894-.45.888-.345.967H5.429v3.778h.715v3.319l.324,1.449.659,1.143.748.874.786.681,1.27.71,1.326.3h2.181l.572.993.748.872.786.68,1.27.72,1.326.309h2.185l.565.972.75.872.786.68,1.271.7,1.326.294h1.99l1.326-.294,1.271-.7L30.4,33.3l.75-.874.656-1.144.324-1.449V26.556h.714V22.727Zm-7.3-3.318h2.011l1.047-.255.583.25.788.523.694.7.5.763.4.772.2.56H20.8l.2-.56.4-.774.5-.762.694-.7.788-.522.583-.253Zm-6.884-3.522h2.012l1.047-.27.583.243.788.519.694.7.622,1.009-.978.415-1.008.7h-7.97l.206-.58.4-.779.5-.764.694-.7.788-.522.583-.238ZM7.236,15.071l.4-.779.5-.764.694-.7L9.61,12.3l.583-.248,1.047.26h2.011l1.047-.26.583.248.788.522.694.7.622,1.01-.978.415-.988.68H7.036Zm.592,9.449-.41-.709-.126-.574h.535Zm0-1.589h-.6l-.059-.319V21.094h.664Zm0-2.144H7.164V19.409h.664Zm-1.378-2.4v-.357H8.339v-.306H6.45v-.357H8.339v-.306H6.45v-.408h7.63l-.449.687-.51,1.048Zm6.585,4.85v1.787h-.664V23.238ZM9.972,26.426l-.718-.393-.778-.7h1.5Zm0-1.4H8.134V23.238H9.972Zm0-2.093H8.134V21.094H9.972Zm0-2.144H8.134V19.409H9.972Zm2.093,6.075h-.7L10.3,26.618l-.022-.023V25.331h1.787v1.531Zm0-1.838H10.279V23.238h1.787Zm0-2.093H10.279V21.094h1.787Zm0-2.144H10.279V19.409h1.787Zm1.071,6.075h-.764V25.331h.664v.95l.122.571Zm1.584,1.211-.41-.723-.128-.59h.538Zm0-1.619h-.606l-.058-.288v-1.5h.664Zm0-2.093h-.664V22.982h.664Zm2.144,5.627-.723-.4-.784-.687h1.507v1.083Zm0-1.39-1.838,0V26.76h1.838Zm0-2.144H15.026V24.667h1.838Zm0-2.093H15.026V22.982h1.838Zm2.093,6.075H18.25l-1.08-.277V28.9h1.787Zm0-1.837H17.17V26.76h1.787Zm0-2.144H17.17V24.667h1.787Zm0-2.093H17.17V22.982h1.787Zm.306,6.075V28.9h.663v.929l.121.6h-.785Zm0-1.837V26.76h.663V28.6ZM20,21.961H13.291v-.408h1.94v-.306h-1.94V20.94h1.94v-.306h-1.94v-.408h7.66l-.436.667-.451.878Zm1.614,9.666-.421-.715-.136-.579h.557v1.294Zm0-1.6h-.626l-.037-.308V28.19h.664v1.838Zm0-2.144h-.664V26.556h.664Zm2.144,5.648-.726-.393-.786-.712h1.512Zm0-1.411h-1.84l0-1.787h1.838v1.787Zm0-2.093H21.918V28.19h1.838Zm0-2.144H21.918V26.556h1.838Zm2.093,6.075h-.715l-1.072-.238V32.427h1.787v1.531Zm0-1.837H24.062V30.334h1.787Zm0-2.093H24.062V28.19h1.787Zm0-2.144H24.062V26.556h1.787Zm2.093,5.837-1.039.237h-.748V32.427h1.787Zm0-1.6H26.155V30.334h1.787Zm0-2.093H26.155V28.19h1.787Zm0-2.144H26.155V26.556h1.787Zm1.073,5.258-.767.416v-1.13h1.545Zm1.071-1.021H28.248V30.334h1.838Zm0-2.093H28.248V28.19h1.838Zm0-2.144H28.248V26.556h1.838Zm.768,3.03-.461.8V30.334h.59Zm.254-1.194-.055.308h-.66V28.19h.715v1.529Zm0-1.836h-.715V26.556h.715Zm.715-3.727h-1.94v.306h1.94v.357h-1.94v.306h1.94v.408H20.182v-.408h1.94V24.82h-1.94v-.357h1.94v-.306h-1.94v-.408h11.64Z" transform="translate(-5.429 -10.98)" fill="#6f6f6f"/>
</svg>
